# xmcd
#
# Track frame offsets:
#	150
#	16003
#	23770
#	41929
#	60701
#	80210
#	101029
#	121760
#	139181
#	161683
#	182921
#	206932
#	228007
#	252730
#	283945
#	308725
#	330287
#
# Disc length: 4607 seconds
#
# Revision: 0
# Processed by: cddbd v1.5.1PL2 Copyright (c) Steve Scherf et al.
# Submitted via: dBpowerAMP V4.0
#
DISCID=f311fd11
DTITLE=Peter Green Splinter Group - Reaching The Cold 100
DYEAR=2003
DGENRE=Blues
TTITLE0=Ain't Nothin' Gonna Change It
TTITLE1=Look Out For Yourself
TTITLE2=Cool Down
TTITLE3=Dangerous Man
TTITLE4=Needs Must The Devil Drives
TTITLE5=Must Be A Fool
TTITLE6=Don't Walk Away
TTITLE7=Can You Tell Me Why (A.K.A. Legal Fee Blues)
TTITLE8=Spiritual Thief
TTITLE9=I'm Ready For You
TTITLE10=Smile
TTITLE11=Nice Girl Like You
TTITLE12=When Somebody Cares
TTITLE13=Black Magic Woman
TTITLE14=It Takes Time
TTITLE15=Green Manalishi
TTITLE16=Albatross
EXTD=
EXTT0=
EXTT1=
EXTT2=
EXTT3=
EXTT4=
EXTT5=
EXTT6=
EXTT7=
EXTT8=
EXTT9=
EXTT10=
EXTT11=
EXTT12=
EXTT13=
EXTT14=
EXTT15=
EXTT16=
PLAYORDER=
